<svg width="24" height="24" viewBox="0 0 24 24" fill="none" xmlns="http://www.w3.org/2000/svg">
<path d="M5.73097 5.16345C5.51304 5.38138 5.51304 5.73472 5.73097 5.95265L17.6149 17.8366C17.8328 18.0545 18.1861 18.0545 18.4041 17.8366C18.622 17.6186 18.622 17.2653 18.4041 17.0473L6.52017 5.16345C6.30224 4.94552 5.9489 4.94552 5.73097 5.16345Z" fill="#6A6A6A"/>
<path d="M4 11.4312C4 10.9582 4.9475 9.57145 6.47323 8.32246L7.24692 9.1319C7.2012 9.16875 7.15592 9.20584 7.1111 9.24313C6.43354 9.80688 5.89445 10.3903 5.53438 10.8678C5.35349 11.1078 5.23028 11.3044 5.15792 11.4446C5.1457 11.4682 5.13592 11.4883 5.12814 11.5051L5.12954 11.511C5.1425 11.5649 5.16549 11.6373 5.20354 11.728C5.28042 11.9114 5.40592 12.1393 5.58782 12.4002C5.95181 12.9223 6.4988 13.5152 7.19102 14.0736C8.58694 15.1997 10.4398 16.0816 12.3707 16.0816C12.8389 16.0816 13.2975 16.0269 13.7423 15.9274L14.6211 16.8469C13.911 17.0684 13.1566 17.1977 12.3707 17.1977C7.85044 17.1977 4 13.1053 4 11.4312Z" fill="#6A6A6A"/>
<path d="M9.20846 11.8032C9.20846 11.6099 9.2258 11.4207 9.25901 11.237L12.7958 14.9372C12.6568 14.9559 12.5149 14.9655 12.3707 14.9655C10.6243 14.9655 9.20846 13.5497 9.20846 11.8032Z" fill="#6A6A6A"/>
<path d="M11.6086 8.7334L15.4031 12.7033C15.4876 12.418 15.533 12.1159 15.533 11.8032C15.533 10.0567 14.1172 8.64094 12.3707 8.64094C12.108 8.64094 11.8527 8.67299 11.6086 8.7334Z" fill="#6A6A6A"/>
<path d="M17.3301 14.0326C17.2119 14.1361 17.09 14.2377 16.9646 14.3369L17.7387 15.1469C19.3669 13.8333 20.3694 12.2301 20.3694 11.4312C20.3694 10.1291 16.705 6.03671 12.1847 6.03671C11.2488 6.03671 10.3496 6.2281 9.51194 6.53988L10.3635 7.43074C10.9522 7.25424 11.5631 7.15281 12.1847 7.15281C14.1131 7.15281 15.9202 8.03254 17.2746 9.11692C17.9462 9.65461 18.4748 10.2182 18.8251 10.6975C19.0006 10.9376 19.1191 11.14 19.1896 11.2928C19.2275 11.3751 19.2437 11.4263 19.2503 11.4495C19.2444 11.4832 19.2269 11.5619 19.1751 11.6911C19.104 11.8685 18.9878 12.0929 18.8195 12.3518C18.483 12.8695 17.9763 13.4671 17.3301 14.0326Z" fill="#6A6A6A"/>
</svg>
